<mxfile host="app.diagrams.net" agent="Mozilla/5.0 (Windows NT 10.0; Win64; x64) AppleWebKit/537.36 (KHTML, like Gecko) Chrome/136.0.0.0 Safari/537.36" version="27.0.9">
  <diagram name="Flujo extremo a extremo" id="flow">
    <mxGraphModel dx="1093" dy="1037" grid="1" gridSize="10" guides="1" tooltips="1" connect="1" arrows="1" fold="1" page="1" pageScale="1" pageWidth="827" pageHeight="1169" math="0" shadow="0">
      <root>
        <mxCell id="0" />
        <mxCell id="1" parent="0" />
        <mxCell id="step0" value="Captura (APIs externas)" style="rounded=1;whiteSpace=wrap;html=1;fillColor=#dae8fc;strokeColor=#6c8ebf;" parent="1" vertex="1">
          <mxGeometry x="80" y="50" width="100" height="60" as="geometry" />
        </mxCell>
        <mxCell id="step1" value="Ingesta (Bronze)" style="rounded=1;whiteSpace=wrap;html=1;fillColor=#dae8fc;strokeColor=#6c8ebf;" parent="1" vertex="1">
          <mxGeometry x="220" y="50" width="90" height="60" as="geometry" />
        </mxCell>
        <mxCell id="step2" value="Enriquecimiento (Silver)" style="rounded=1;whiteSpace=wrap;html=1;fillColor=#dae8fc;strokeColor=#6c8ebf;" parent="1" vertex="1">
          <mxGeometry x="350" y="50" width="100" height="60" as="geometry" />
        </mxCell>
        <mxCell id="step3" value="Agregación (Gold)" style="rounded=1;whiteSpace=wrap;html=1;fillColor=#dae8fc;strokeColor=#6c8ebf;" parent="1" vertex="1">
          <mxGeometry x="500" y="50" width="80" height="60" as="geometry" />
        </mxCell>
        <mxCell id="step4" value="Visualización (Dash)" style="rounded=1;whiteSpace=wrap;html=1;fillColor=#dae8fc;strokeColor=#6c8ebf;" parent="1" vertex="1">
          <mxGeometry x="620" y="50" width="100" height="60" as="geometry" />
        </mxCell>
        <mxCell id="arrow0" style="endArrow=block;html=1;strokeColor=#000000;" parent="1" source="step0" target="step1" edge="1">
          <mxGeometry relative="1" as="geometry" />
        </mxCell>
        <mxCell id="arrow1" style="endArrow=block;html=1;strokeColor=#000000;" parent="1" source="step1" target="step2" edge="1">
          <mxGeometry relative="1" as="geometry" />
        </mxCell>
        <mxCell id="arrow2" style="endArrow=block;html=1;strokeColor=#000000;" parent="1" source="step2" target="step3" edge="1">
          <mxGeometry relative="1" as="geometry" />
        </mxCell>
        <mxCell id="arrow3" style="endArrow=block;html=1;strokeColor=#000000;" parent="1" source="step3" target="step4" edge="1">
          <mxGeometry relative="1" as="geometry" />
        </mxCell>
      </root>
    </mxGraphModel>
  </diagram>
</mxfile>
